<mxfile host="app.diagrams.net" agent="Mozilla/5.0 (Windows NT 10.0; Win64; x64) AppleWebKit/537.36 (KHTML, like Gecko) Chrome/136.0.0.0 Safari/537.36" version="27.1.1">
  <diagram name="Page-1" id="b7a7eaba-c6c5-6fbe-34ae-1d3a4219ac39">
    <mxGraphModel dx="1921" dy="1006" grid="1" gridSize="10" guides="1" tooltips="1" connect="1" arrows="1" fold="1" page="1" pageScale="1.5" pageWidth="1169" pageHeight="826" background="none" math="0" shadow="0">
      <root>
        <mxCell id="0" style=";html=1;" />
        <mxCell id="1" style=";html=1;" parent="0" />
        <mxCell id="279d4c6e8b4f5ae2-2" value="" style="html=1;shadow=0;dashed=0;align=center;verticalAlign=middle;shape=mxgraph.arrows2.arrow;dy=0.5;dx=15;direction=north;notch=0;rounded=0;strokeWidth=1;fontSize=20;rotation=35;" parent="1" vertex="1">
          <mxGeometry x="530" y="604" width="20" height="240" as="geometry" />
        </mxCell>
        <mxCell id="279d4c6e8b4f5ae2-3" value="" style="html=1;shadow=0;dashed=0;align=center;verticalAlign=middle;shape=mxgraph.arrows2.arrow;dy=0.5;dx=15;direction=north;notch=0;rounded=0;strokeWidth=1;fontSize=20;rotation=35;" parent="1" vertex="1">
          <mxGeometry x="799" y="604" width="20" height="240" as="geometry" />
        </mxCell>
        <mxCell id="279d4c6e8b4f5ae2-4" value="" style="html=1;shadow=0;dashed=0;align=center;verticalAlign=middle;shape=mxgraph.arrows2.arrow;dy=0.5;dx=15;direction=north;notch=0;rounded=0;strokeWidth=1;fontSize=20;rotation=35;" parent="1" vertex="1">
          <mxGeometry x="1029" y="604" width="20" height="240" as="geometry" />
        </mxCell>
        <mxCell id="279d4c6e8b4f5ae2-5" value="" style="html=1;shadow=0;dashed=0;align=center;verticalAlign=middle;shape=mxgraph.arrows2.arrow;dy=0.5;dx=15;direction=north;notch=0;rounded=0;strokeWidth=1;fontSize=20;rotation=90;" parent="1" vertex="1">
          <mxGeometry x="819" y="279" width="20" height="681" as="geometry" />
        </mxCell>
        <mxCell id="279d4c6e8b4f5ae2-6" value="" style="html=1;shadow=0;dashed=0;align=center;verticalAlign=middle;shape=mxgraph.arrows2.arrow;dy=0.5;dx=15;direction=north;notch=0;rounded=0;strokeWidth=1;fontSize=20;rotation=155;" parent="1" vertex="1">
          <mxGeometry x="613" y="384" width="20" height="240" as="geometry" />
        </mxCell>
        <mxCell id="279d4c6e8b4f5ae2-8" value="" style="html=1;shadow=0;dashed=0;align=center;verticalAlign=middle;shape=mxgraph.arrows2.arrow;dy=0.5;dx=15;direction=north;notch=0;rounded=0;strokeWidth=1;fontSize=20;rotation=155;" parent="1" vertex="1">
          <mxGeometry x="1048" y="384" width="20" height="240" as="geometry" />
        </mxCell>
        <mxCell id="279d4c6e8b4f5ae2-9" value="Technology" style="rounded=1;whiteSpace=wrap;html=1;shadow=1;strokeWidth=2;fontSize=20;" parent="1" vertex="1">
          <mxGeometry x="499" y="364" width="150" height="40" as="geometry" />
        </mxCell>
        <mxCell id="279d4c6e8b4f5ae2-11" value="Communication" style="rounded=1;whiteSpace=wrap;html=1;shadow=1;strokeWidth=2;fontSize=20;" parent="1" vertex="1">
          <mxGeometry x="939" y="364" width="150" height="40" as="geometry" />
        </mxCell>
        <mxCell id="279d4c6e8b4f5ae2-12" value="Logistics" style="rounded=1;whiteSpace=wrap;html=1;shadow=1;strokeWidth=2;fontSize=20;" parent="1" vertex="1">
          <mxGeometry x="398" y="816" width="150" height="40" as="geometry" />
        </mxCell>
        <mxCell id="279d4c6e8b4f5ae2-13" value="Organization" style="rounded=1;whiteSpace=wrap;html=1;shadow=1;strokeWidth=2;fontSize=20;" parent="1" vertex="1">
          <mxGeometry x="672" y="816.0000000000001" width="150" height="40" as="geometry" />
        </mxCell>
        <mxCell id="279d4c6e8b4f5ae2-14" value="People" style="rounded=1;whiteSpace=wrap;html=1;shadow=1;strokeWidth=2;fontSize=20;" parent="1" vertex="1">
          <mxGeometry x="902" y="816" width="150" height="40" as="geometry" />
        </mxCell>
        <mxCell id="279d4c6e8b4f5ae2-15" value="Project Delays" style="ellipse;whiteSpace=wrap;html=1;rounded=1;shadow=1;strokeWidth=2;fontSize=20;" parent="1" vertex="1">
          <mxGeometry x="1171" y="560" width="159" height="120" as="geometry" />
        </mxCell>
        <mxCell id="279d4c6e8b4f5ae2-16" value="&lt;font style=&quot;font-size: 12px;&quot;&gt;Outdated software&lt;/font&gt;" style="html=1;shadow=0;dashed=0;align=center;verticalAlign=middle;shape=mxgraph.arrows2.arrow;dy=0.5;dx=15;direction=north;notch=0;rounded=0;strokeWidth=1;fontSize=20;rotation=90;horizontal=0;labelPosition=left;verticalLabelPosition=middle;" parent="1" vertex="1">
          <mxGeometry x="515.5" y="386.5" width="20" height="139" as="geometry" />
        </mxCell>
        <mxCell id="279d4c6e8b4f5ae2-18" value="&lt;font style=&quot;font-size: 12px;&quot;&gt;Never saying &#39;no&#39;&lt;/font&gt;" style="html=1;shadow=0;dashed=0;align=center;verticalAlign=middle;shape=mxgraph.arrows2.arrow;dy=0.5;dx=15;direction=north;notch=0;rounded=0;strokeWidth=1;fontSize=20;rotation=90;horizontal=0;labelPosition=left;verticalLabelPosition=middle;" parent="1" vertex="1">
          <mxGeometry x="954.5" y="391.5" width="20" height="129" as="geometry" />
        </mxCell>
        <mxCell id="279d4c6e8b4f5ae2-19" value="&lt;font style=&quot;font-size: 12px;&quot;&gt;Slow shipping and processing&lt;/font&gt;" style="html=1;shadow=0;dashed=0;align=center;verticalAlign=middle;shape=mxgraph.arrows2.arrow;dy=0.5;dx=15;direction=north;notch=0;rounded=0;strokeWidth=1;fontSize=20;rotation=90;horizontal=0;labelPosition=left;verticalLabelPosition=middle;" parent="1" vertex="1">
          <mxGeometry x="420" y="684" width="20" height="154" as="geometry" />
        </mxCell>
        <mxCell id="279d4c6e8b4f5ae2-20" value="&lt;font style=&quot;font-size: 12px;&quot;&gt;Absent leadership&lt;/font&gt;" style="html=1;shadow=0;dashed=0;align=center;verticalAlign=middle;shape=mxgraph.arrows2.arrow;dy=0.5;dx=15;direction=north;notch=0;rounded=0;strokeWidth=1;fontSize=20;rotation=90;horizontal=0;labelPosition=left;verticalLabelPosition=middle;" parent="1" vertex="1">
          <mxGeometry x="692" y="689" width="20" height="144" as="geometry" />
        </mxCell>
        <mxCell id="279d4c6e8b4f5ae2-21" value="&lt;span style=&quot;font-size: 12px;&quot;&gt;Lack of expertise&lt;/span&gt;" style="html=1;shadow=0;dashed=0;align=center;verticalAlign=middle;shape=mxgraph.arrows2.arrow;dy=0.5;dx=15;direction=north;notch=0;rounded=0;strokeWidth=1;fontSize=20;rotation=90;horizontal=0;labelPosition=left;verticalLabelPosition=middle;" parent="1" vertex="1">
          <mxGeometry x="918" y="684" width="20" height="154" as="geometry" />
        </mxCell>
        <mxCell id="279d4c6e8b4f5ae2-22" value="&lt;font style=&quot;font-size: 12px;&quot;&gt;Lack of compute&lt;/font&gt;" style="html=1;shadow=0;dashed=0;align=center;verticalAlign=middle;shape=mxgraph.arrows2.arrow;dy=0.5;dx=15;direction=north;notch=0;rounded=0;strokeWidth=1;fontSize=20;rotation=90;horizontal=0;labelPosition=left;verticalLabelPosition=middle;" parent="1" vertex="1">
          <mxGeometry x="508.75" y="423.75" width="20" height="232.5" as="geometry" />
        </mxCell>
        <mxCell id="279d4c6e8b4f5ae2-24" value="&lt;font style=&quot;font-size: 12px;&quot;&gt;Slow response rate&lt;/font&gt;" style="html=1;shadow=0;dashed=0;align=center;verticalAlign=middle;shape=mxgraph.arrows2.arrow;dy=0.5;dx=15;direction=north;notch=0;rounded=0;strokeWidth=1;fontSize=20;rotation=90;horizontal=0;labelPosition=left;verticalLabelPosition=middle;" parent="1" vertex="1">
          <mxGeometry x="952.75" y="433.75" width="20" height="212.5" as="geometry" />
        </mxCell>
        <mxCell id="279d4c6e8b4f5ae2-26" value="&lt;font style=&quot;font-size: 12px;&quot;&gt;Weak contractual constraints&lt;/font&gt;" style="html=1;shadow=0;dashed=0;align=center;verticalAlign=middle;shape=mxgraph.arrows2.arrow;dy=0.5;dx=15;direction=north;notch=0;rounded=0;strokeWidth=1;fontSize=20;rotation=90;horizontal=0;labelPosition=left;verticalLabelPosition=middle;" parent="1" vertex="1">
          <mxGeometry x="732.5" y="607.5" width="20" height="165" as="geometry" />
        </mxCell>
        <mxCell id="279d4c6e8b4f5ae2-27" value="&lt;font style=&quot;font-size: 12px;&quot;&gt;Burnout or overwork&lt;/font&gt;" style="html=1;shadow=0;dashed=0;align=center;verticalAlign=middle;shape=mxgraph.arrows2.arrow;dy=0.5;dx=15;direction=north;notch=0;rounded=0;strokeWidth=1;fontSize=20;rotation=90;horizontal=0;labelPosition=left;verticalLabelPosition=middle;" parent="1" vertex="1">
          <mxGeometry x="991" y="635" width="20" height="110" as="geometry" />
        </mxCell>
        <mxCell id="bCvaqeBLOy6EBUBaMTdj-3" value="&lt;span style=&quot;font-size: 12px;&quot;&gt;Disengaged PM&lt;/span&gt;" style="html=1;shadow=0;dashed=0;align=center;verticalAlign=middle;shape=mxgraph.arrows2.arrow;dy=0.5;dx=15;direction=north;notch=0;rounded=0;strokeWidth=1;fontSize=20;rotation=30;horizontal=0;labelPosition=left;verticalLabelPosition=middle;" vertex="1" parent="1">
          <mxGeometry x="633" y="758" width="20" height="144" as="geometry" />
        </mxCell>
        <mxCell id="bCvaqeBLOy6EBUBaMTdj-5" value="&lt;font style=&quot;font-size: 12px;&quot;&gt;Cheap local hardware&lt;/font&gt;" style="html=1;shadow=0;dashed=0;align=center;verticalAlign=middle;shape=mxgraph.arrows2.arrow;dy=0.5;dx=15;direction=north;notch=0;rounded=0;strokeWidth=1;fontSize=20;rotation=150;horizontal=0;labelPosition=left;verticalLabelPosition=middle;" vertex="1" parent="1">
          <mxGeometry x="398" y="361.5" width="20" height="185" as="geometry" />
        </mxCell>
        <mxCell id="bCvaqeBLOy6EBUBaMTdj-7" value="&lt;span style=&quot;font-size: 12px;&quot;&gt;Expensive cloud-based clusters&lt;/span&gt;" style="html=1;shadow=0;dashed=0;align=center;verticalAlign=middle;shape=mxgraph.arrows2.arrow;dy=0.5;dx=15;direction=north;notch=0;rounded=0;strokeWidth=1;fontSize=20;rotation=35;horizontal=0;labelPosition=left;verticalLabelPosition=middle;" vertex="1" parent="1">
          <mxGeometry x="389" y="528.52" width="20" height="196.01" as="geometry" />
        </mxCell>
      </root>
    </mxGraphModel>
  </diagram>
</mxfile>
